# xmcd
#
# Track frame offsets: 
#        150
#        13112
#        28972
#        46815
#        63695
#        76950
#        88360
#        102565
#        125805
#        139642
#        156267
#        169262
#        181317
#        194642
#        208837
#        223065
#        238550
#        250270
#        265567
#        279277
#        290542
#        309817
#
# Disc length: 4294 seconds
#
# Revision: 0
# Processed by: cddbd v1.5.2PL0 Copyright (c) Steve Scherf et al.
# Submitted via: ExactAudioCopy v1.1
#
DISCID=4e10c416
DTITLE=Freda Payne - Best Of Freda Payne
DYEAR=1971
DGENRE=Soul
TTITLE0=How Can I Live Without My Life
TTITLE1=Bring The Boys Home
TTITLE2=Cherish What Is Dear To You
TTITLE3=He's In My Life
TTITLE4=Band Of Gold
TTITLE5=Just A Woman
TTITLE6=Now Is The Time To Say Goodbye
TTITLE7=The Road We Didn't Take
TTITLE8=Deeper and Deeper
TTITLE9=You're The Only Bargain I've Got
TTITLE10=Come Back
TTITLE11=Through The Memory Of My Mind
TTITLE12=You Brough The Joy
TTITLE13=We've Gotta Find A Way Back To Love
TTITLE14=Mood For Love
TTITLE15=Mama's Gone
TTITLE16=The Easiest  Way To Fall
TTITLE17=Two Wrongs Don't Make A Right
TTITLE18=Rock Me In The Candle
TTITLE19=Unhooked Generation
TTITLE20=The Man Of My Dream
TTITLE21=I Shall Not Be Moved
EXTD=
EXTT0=
EXTT1=
EXTT2=
EXTT3=
EXTT4=
EXTT5=
EXTT6=
EXTT7=
EXTT8=
EXTT9=
EXTT10=
EXTT11=
EXTT12=
EXTT13=
EXTT14=
EXTT15=
EXTT16=
EXTT17=
EXTT18=
EXTT19=
EXTT20=
EXTT21=
PLAYORDER=
